name Walk10.mot
datacolumns 19
datarows 17
range 2.29200000 2.30800000
endheader

                time	   L_ground_force_vx	   L_ground_force_vy	   L_ground_force_vz	   L_ground_force_px	   L_ground_force_py	   L_ground_force_pz	   R_ground_force_vx	   R_ground_force_vy	   R_ground_force_vz	   R_ground_force_px	   R_ground_force_py	   R_ground_force_pz	   L_ground_torque_x	   L_ground_torque_y	   L_ground_torque_z	   R_ground_torque_x	   R_ground_torque_y	   R_ground_torque_z	
          2.29200000	          0.00000000	         -0.00000000	          0.00000000	          0.00000000	          0.00000000	          0.00000000	         16.22088092	         55.94033836	          3.14651412	          0.43018333	          0.00000000	          0.05716599	          0.00000000	         -0.00000000	          0.00000000	          0.00000000	          0.04018452	          0.00000000	
          2.29300000	          0.00000000	          0.00000000	          0.00000000	          0.00000000	          0.00000000	          0.00000000	         15.14154361	         52.16668609	          2.97740047	          0.41907980	          0.00000000	          0.05571607	          0.00000000	         -0.00000000	          0.00000000	          0.00000000	          0.04335761	          0.00000000	
          2.29400000	          0.00000000	          0.00000000	          0.00000000	          0.00000000	          0.00000000	          0.00000000	         14.09931660	         48.52922380	          2.81103487	          0.40764259	          0.00000000	          0.05421963	          0.00000000	         -0.00000000	          0.00000000	          0.00000000	          0.04613428	          0.00000000	
          2.29500000	          0.00000000	          0.00000000	          0.00000000	          0.00000000	          0.00000000	          0.00000000	         13.09441185	         45.02745788	          2.64784827	          0.39589042	          0.00000000	          0.05267928	          0.00000000	         -0.00000000	          0.00000000	          0.00000000	          0.04853076	          0.00000000	
          2.29600000	          0.00000000	          0.00000000	          0.00000000	          0.00000000	          0.00000000	          0.00000000	         12.12696245	         41.66076271	          2.48823253	          0.38384507	          0.00000000	          0.05109806	          0.00000000	         -0.00000000	          0.00000000	          0.00000000	          0.05056331	          0.00000000	
          2.29700000	          0.00000000	          0.00000000	          0.00000000	          0.00000000	          0.00000000	          0.00000000	         11.19702619	         38.42838838	          2.33253935	          0.37153153	          0.00000000	          0.04947943	          0.00000000	         -0.00000000	          0.00000000	          0.00000000	          0.05224875	          0.00000000	
          2.29800000	          0.00000000	          0.00000000	          0.00000000	          0.00000000	          0.00000000	          0.00000000	         10.30458912	         35.32946918	          2.18107880	          0.35897830	          0.00000000	          0.04782730	          0.00000000	         -0.00000000	          0.00000000	          0.00000000	          0.05360468	          0.00000000	
          2.29900000	          0.00000000	          0.00000000	          0.00000000	          0.00000000	          0.00000000	          0.00000000	          9.44956851	         32.36303149	          2.03411762	          0.34621756	          0.00000000	          0.04614601	          0.00000000	         -0.00000000	          0.00000000	          0.00000000	          0.05464969	          0.00000000	
          2.30000000	          0.00000000	          0.00000000	          0.00000000	          0.00000000	          0.00000000	          0.00000000	          8.63181472	         29.52799843	          1.89187755	          0.33328539	          0.00000000	          0.04444041	          0.00000000	         -0.00000000	          0.00000000	          0.00000000	          0.05540316	          0.00000000	
          2.30100000	          0.00000000	          0.00000000	          0.00000000	          0.00000000	          0.00000000	          0.00000000	          7.85111167	         26.82318782	          1.75453433	          0.32022197	          0.00000000	          0.04271585	          0.00000000	         -0.00000000	          0.00000000	          0.00000000	          0.05588503	          0.00000000	
          2.30200000	          0.00000000	          0.00000000	          0.00000000	          0.00000000	          0.00000000	          0.00000000	          7.10717566	         24.24729983	          1.62221801	          0.30707172	          0.00000000	          0.04097825	          0.00000000	         -0.00000000	          0.00000000	          0.00000000	          0.05611545	          0.00000000	
          2.30300000	          0.00000000	          0.00000000	          0.00000000	          0.00000000	          0.00000000	          0.00000000	          6.39965119	         21.79888488	          1.49501582	          0.29388292	          0.00000000	          0.03923405	          0.00000000	         -0.00000000	          0.00000000	          0.00000000	          0.05611441	          0.00000000	
          2.30400000	          0.00000000	          0.00000000	          0.00000000	          0.00000000	          0.00000000	          0.00000000	          5.72810269	         19.47628313	          1.37297873	          0.28070551	          0.00000000	          0.03748998	          0.00000000	         -0.00000000	          0.00000000	          0.00000000	          0.05590143	          0.00000000	
          2.30500000	          0.00000000	          0.00000000	          0.00000000	          0.00000000	          0.00000000	          0.00000000	          5.09200688	         17.27756232	          1.25612958	          0.26758777	          0.00000000	          0.03575252	          0.00000000	         -0.00000000	          0.00000000	          0.00000000	          0.05549533	          0.00000000	
          2.30600000	          0.00000000	          0.00000000	          0.00000000	          0.00000000	          0.00000000	          0.00000000	          4.49075307	         15.20049802	          1.14446880	          0.25457421	          0.00000000	          0.03402770	          0.00000000	         -0.00000000	          0.00000000	          0.00000000	          0.05491405	          0.00000000	
          2.30700000	          0.00000000	          0.00000000	          0.00000000	          0.00000000	          0.00000000	          0.00000000	          3.92365085	         13.24259523	          1.03797721	          0.24170513	          0.00000000	          0.03232094	          0.00000000	         -0.00000000	          0.00000000	          0.00000000	          0.05417468	          0.00000000	
          2.30800000	          0.00000000	          0.00000000	          0.00000000	          0.00000000	          0.00000000	          0.00000000	          3.38993947	         11.40112080	          0.93661770	          0.22901690	          0.00000000	          0.03063716	          0.00000000	         -0.00000000	          0.00000000	          0.00000000	          0.05329347	          0.00000000	
